<?xml version="1.0" encoding="utf-8" standalone="no"?>
<!DOCTYPE svg PUBLIC "-//W3C//DTD SVG 1.1//EN"
  "http://www.w3.org/Graphics/SVG/1.1/DTD/svg11.dtd">
<!-- Created with matplotlib (https://matplotlib.org/) -->
<svg height="216pt" version="1.1" viewBox="0 0 432 216" width="432pt" xmlns="http://www.w3.org/2000/svg" xmlns:xlink="http://www.w3.org/1999/xlink">
 <metadata>
  <rdf:RDF xmlns:cc="http://creativecommons.org/ns#" xmlns:dc="http://purl.org/dc/elements/1.1/" xmlns:rdf="http://www.w3.org/1999/02/22-rdf-syntax-ns#">
   <cc:Work>
    <dc:type rdf:resource="http://purl.org/dc/dcmitype/StillImage"/>
    <dc:date>2021-10-16T07:49:31.417385</dc:date>
    <dc:format>image/svg+xml</dc:format>
    <dc:creator>
     <cc:Agent>
      <dc:title>Matplotlib v3.3.2, https://matplotlib.org/</dc:title>
     </cc:Agent>
    </dc:creator>
   </cc:Work>
  </rdf:RDF>
 </metadata>
 <defs>
  <style type="text/css">*{stroke-linecap:butt;stroke-linejoin:round;}</style>
 </defs>
 <g id="figure_1">
  <g id="patch_1">
   <path d="M 0 216 
L 432 216 
L 432 0 
L 0 0 
z
" style="fill:none;"/>
  </g>
  <g id="axes_1">
   <g id="patch_2">
    <path d="M 54 189 
L 388.8 189 
L 388.8 25.92 
L 54 25.92 
z
" style="fill:none;"/>
   </g>
   <g id="matplotlib.axis_1">
    <g id="xtick_1">
     <g id="line2d_1">
      <defs>
       <path d="M 0 0 
L 0 3.5 
" id="mf9456e72b4" style="stroke:#000000;stroke-width:0.8;"/>
      </defs>
      <g>
       <use style="stroke:#000000;stroke-width:0.8;" x="54" xlink:href="#mf9456e72b4" y="189"/>
      </g>
     </g>
     <g id="text_1">
      <!-- −60 -->
      <g transform="translate(43.447656 203.598437)scale(0.1 -0.1)">
       <defs>
        <path d="M 10.59375 35.5 
L 73.1875 35.5 
L 73.1875 27.203125 
L 10.59375 27.203125 
z
" id="DejaVuSans-8722"/>
        <path d="M 33.015625 40.375 
Q 26.375 40.375 22.484375 35.828125 
Q 18.609375 31.296875 18.609375 23.390625 
Q 18.609375 15.53125 22.484375 10.953125 
Q 26.375 6.390625 33.015625 6.390625 
Q 39.65625 6.390625 43.53125 10.953125 
Q 47.40625 15.53125 47.40625 23.390625 
Q 47.40625 31.296875 43.53125 35.828125 
Q 39.65625 40.375 33.015625 40.375 
z
M 52.59375 71.296875 
L 52.59375 62.3125 
Q 48.875 64.0625 45.09375 64.984375 
Q 41.3125 65.921875 37.59375 65.921875 
Q 27.828125 65.921875 22.671875 59.328125 
Q 17.53125 52.734375 16.796875 39.40625 
Q 19.671875 43.65625 24.015625 45.921875 
Q 28.375 48.1875 33.59375 48.1875 
Q 44.578125 48.1875 50.953125 41.515625 
Q 57.328125 34.859375 57.328125 23.390625 
Q 57.328125 12.15625 50.6875 5.359375 
Q 44.046875 -1.421875 33.015625 -1.421875 
Q 20.359375 -1.421875 13.671875 8.265625 
Q 6.984375 17.96875 6.984375 36.375 
Q 6.984375 53.65625 15.1875 63.9375 
Q 23.390625 74.21875 37.203125 74.21875 
Q 40.921875 74.21875 44.703125 73.484375 
Q 48.484375 72.75 52.59375 71.296875 
z
" id="DejaVuSans-54"/>
        <path d="M 31.78125 66.40625 
Q 24.171875 66.40625 20.328125 58.90625 
Q 16.5 51.421875 16.5 36.375 
Q 16.5 21.390625 20.328125 13.890625 
Q 24.171875 6.390625 31.78125 6.390625 
Q 39.453125 6.390625 43.28125 13.890625 
Q 47.125 21.390625 47.125 36.375 
Q 47.125 51.421875 43.28125 58.90625 
Q 39.453125 66.40625 31.78125 66.40625 
z
M 31.78125 74.21875 
Q 44.046875 74.21875 50.515625 64.515625 
Q 56.984375 54.828125 56.984375 36.375 
Q 56.984375 17.96875 50.515625 8.265625 
Q 44.046875 -1.421875 31.78125 -1.421875 
Q 19.53125 -1.421875 13.0625 8.265625 
Q 6.59375 17.96875 6.59375 36.375 
Q 6.59375 54.828125 13.0625 64.515625 
Q 19.53125 74.21875 31.78125 74.21875 
z
" id="DejaVuSans-48"/>
       </defs>
       <use xlink:href="#DejaVuSans-8722"/>
       <use x="83.789062" xlink:href="#DejaVuSans-54"/>
       <use x="147.412109" xlink:href="#DejaVuSans-48"/>
      </g>
     </g>
    </g>
    <g id="xtick_2">
     <g id="line2d_2">
      <g>
       <use style="stroke:#000000;stroke-width:0.8;" x="109.8" xlink:href="#mf9456e72b4" y="189"/>
      </g>
     </g>
     <g id="text_2">
      <!-- −40 -->
      <g transform="translate(99.247656 203.598437)scale(0.1 -0.1)">
       <defs>
        <path d="M 37.796875 64.3125 
L 12.890625 25.390625 
L 37.796875 25.390625 
z
M 35.203125 72.90625 
L 47.609375 72.90625 
L 47.609375 25.390625 
L 58.015625 25.390625 
L 58.015625 17.1875 
L 47.609375 17.1875 
L 47.609375 0 
L 37.796875 0 
L 37.796875 17.1875 
L 4.890625 17.1875 
L 4.890625 26.703125 
z
" id="DejaVuSans-52"/>
       </defs>
       <use xlink:href="#DejaVuSans-8722"/>
       <use x="83.789062" xlink:href="#DejaVuSans-52"/>
       <use x="147.412109" xlink:href="#DejaVuSans-48"/>
      </g>
     </g>
    </g>
    <g id="xtick_3">
     <g id="line2d_3">
      <g>
       <use style="stroke:#000000;stroke-width:0.8;" x="165.6" xlink:href="#mf9456e72b4" y="189"/>
      </g>
     </g>
     <g id="text_3">
      <!-- −20 -->
      <g transform="translate(155.047656 203.598437)scale(0.1 -0.1)">
       <defs>
        <path d="M 19.1875 8.296875 
L 53.609375 8.296875 
L 53.609375 0 
L 7.328125 0 
L 7.328125 8.296875 
Q 12.9375 14.109375 22.625 23.890625 
Q 32.328125 33.6875 34.8125 36.53125 
Q 39.546875 41.84375 41.421875 45.53125 
Q 43.3125 49.21875 43.3125 52.78125 
Q 43.3125 58.59375 39.234375 62.25 
Q 35.15625 65.921875 28.609375 65.921875 
Q 23.96875 65.921875 18.8125 64.3125 
Q 13.671875 62.703125 7.8125 59.421875 
L 7.8125 69.390625 
Q 13.765625 71.78125 18.9375 73 
Q 24.125 74.21875 28.421875 74.21875 
Q 39.75 74.21875 46.484375 68.546875 
Q 53.21875 62.890625 53.21875 53.421875 
Q 53.21875 48.921875 51.53125 44.890625 
Q 49.859375 40.875 45.40625 35.40625 
Q 44.1875 33.984375 37.640625 27.21875 
Q 31.109375 20.453125 19.1875 8.296875 
z
" id="DejaVuSans-50"/>
       </defs>
       <use xlink:href="#DejaVuSans-8722"/>
       <use x="83.789062" xlink:href="#DejaVuSans-50"/>
       <use x="147.412109" xlink:href="#DejaVuSans-48"/>
      </g>
     </g>
    </g>
    <g id="xtick_4">
     <g id="line2d_4">
      <g>
       <use style="stroke:#000000;stroke-width:0.8;" x="221.4" xlink:href="#mf9456e72b4" y="189"/>
      </g>
     </g>
     <g id="text_4">
      <!-- 0 -->
      <g transform="translate(218.21875 203.598437)scale(0.1 -0.1)">
       <use xlink:href="#DejaVuSans-48"/>
      </g>
     </g>
    </g>
    <g id="xtick_5">
     <g id="line2d_5">
      <g>
       <use style="stroke:#000000;stroke-width:0.8;" x="277.2" xlink:href="#mf9456e72b4" y="189"/>
      </g>
     </g>
     <g id="text_5">
      <!-- 20 -->
      <g transform="translate(270.8375 203.598437)scale(0.1 -0.1)">
       <use xlink:href="#DejaVuSans-50"/>
       <use x="63.623047" xlink:href="#DejaVuSans-48"/>
      </g>
     </g>
    </g>
    <g id="xtick_6">
     <g id="line2d_6">
      <g>
       <use style="stroke:#000000;stroke-width:0.8;" x="333" xlink:href="#mf9456e72b4" y="189"/>
      </g>
     </g>
     <g id="text_6">
      <!-- 40 -->
      <g transform="translate(326.6375 203.598437)scale(0.1 -0.1)">
       <use xlink:href="#DejaVuSans-52"/>
       <use x="63.623047" xlink:href="#DejaVuSans-48"/>
      </g>
     </g>
    </g>
    <g id="xtick_7">
     <g id="line2d_7">
      <g>
       <use style="stroke:#000000;stroke-width:0.8;" x="388.8" xlink:href="#mf9456e72b4" y="189"/>
      </g>
     </g>
     <g id="text_7">
      <!-- 60 -->
      <g transform="translate(382.4375 203.598437)scale(0.1 -0.1)">
       <use xlink:href="#DejaVuSans-54"/>
       <use x="63.623047" xlink:href="#DejaVuSans-48"/>
      </g>
     </g>
    </g>
    <g id="text_8">
     <!-- Vm[mV] -->
     <g transform="translate(200.917188 217.276563)scale(0.1 -0.1)">
      <defs>
       <path d="M 28.609375 0 
L 0.78125 72.90625 
L 11.078125 72.90625 
L 34.1875 11.53125 
L 57.328125 72.90625 
L 67.578125 72.90625 
L 39.796875 0 
z
" id="DejaVuSans-86"/>
       <path d="M 52 44.1875 
Q 55.375 50.25 60.0625 53.125 
Q 64.75 56 71.09375 56 
Q 79.640625 56 84.28125 50.015625 
Q 88.921875 44.046875 88.921875 33.015625 
L 88.921875 0 
L 79.890625 0 
L 79.890625 32.71875 
Q 79.890625 40.578125 77.09375 44.375 
Q 74.3125 48.1875 68.609375 48.1875 
Q 61.625 48.1875 57.5625 43.546875 
Q 53.515625 38.921875 53.515625 30.90625 
L 53.515625 0 
L 44.484375 0 
L 44.484375 32.71875 
Q 44.484375 40.625 41.703125 44.40625 
Q 38.921875 48.1875 33.109375 48.1875 
Q 26.21875 48.1875 22.15625 43.53125 
Q 18.109375 38.875 18.109375 30.90625 
L 18.109375 0 
L 9.078125 0 
L 9.078125 54.6875 
L 18.109375 54.6875 
L 18.109375 46.1875 
Q 21.1875 51.21875 25.484375 53.609375 
Q 29.78125 56 35.6875 56 
Q 41.65625 56 45.828125 52.96875 
Q 50 49.953125 52 44.1875 
z
" id="DejaVuSans-109"/>
       <path d="M 8.59375 75.984375 
L 29.296875 75.984375 
L 29.296875 69 
L 17.578125 69 
L 17.578125 -6.203125 
L 29.296875 -6.203125 
L 29.296875 -13.1875 
L 8.59375 -13.1875 
z
" id="DejaVuSans-91"/>
       <path d="M 30.421875 75.984375 
L 30.421875 -13.1875 
L 9.71875 -13.1875 
L 9.71875 -6.203125 
L 21.390625 -6.203125 
L 21.390625 69 
L 9.71875 69 
L 9.71875 75.984375 
z
" id="DejaVuSans-93"/>
      </defs>
      <use xlink:href="#DejaVuSans-86"/>
      <use x="68.408203" xlink:href="#DejaVuSans-109"/>
      <use x="165.820312" xlink:href="#DejaVuSans-91"/>
      <use x="204.833984" xlink:href="#DejaVuSans-109"/>
      <use x="302.246094" xlink:href="#DejaVuSans-86"/>
      <use x="370.654297" xlink:href="#DejaVuSans-93"/>
     </g>
    </g>
   </g>
   <g id="matplotlib.axis_2">
    <g id="ytick_1">
     <g id="line2d_8">
      <defs>
       <path d="M 0 0 
L -3.5 0 
" id="m4948c141fa" style="stroke:#000000;stroke-width:0.8;"/>
      </defs>
      <g>
       <use style="stroke:#000000;stroke-width:0.8;" x="54" xlink:href="#m4948c141fa" y="189"/>
      </g>
     </g>
     <g id="text_9">
      <!-- −100 -->
      <g transform="translate(19.532812 192.799219)scale(0.1 -0.1)">
       <defs>
        <path d="M 12.40625 8.296875 
L 28.515625 8.296875 
L 28.515625 63.921875 
L 10.984375 60.40625 
L 10.984375 69.390625 
L 28.421875 72.90625 
L 38.28125 72.90625 
L 38.28125 8.296875 
L 54.390625 8.296875 
L 54.390625 0 
L 12.40625 0 
z
" id="DejaVuSans-49"/>
       </defs>
       <use xlink:href="#DejaVuSans-8722"/>
       <use x="83.789062" xlink:href="#DejaVuSans-49"/>
       <use x="147.412109" xlink:href="#DejaVuSans-48"/>
       <use x="211.035156" xlink:href="#DejaVuSans-48"/>
      </g>
     </g>
    </g>
    <g id="ytick_2">
     <g id="line2d_9">
      <g>
       <use style="stroke:#000000;stroke-width:0.8;" x="54" xlink:href="#m4948c141fa" y="156.384"/>
      </g>
     </g>
     <g id="text_10">
      <!-- 0 -->
      <g transform="translate(40.6375 160.183219)scale(0.1 -0.1)">
       <use xlink:href="#DejaVuSans-48"/>
      </g>
     </g>
    </g>
    <g id="ytick_3">
     <g id="line2d_10">
      <g>
       <use style="stroke:#000000;stroke-width:0.8;" x="54" xlink:href="#m4948c141fa" y="123.768"/>
      </g>
     </g>
     <g id="text_11">
      <!-- 100 -->
      <g transform="translate(27.9125 127.567219)scale(0.1 -0.1)">
       <use xlink:href="#DejaVuSans-49"/>
       <use x="63.623047" xlink:href="#DejaVuSans-48"/>
       <use x="127.246094" xlink:href="#DejaVuSans-48"/>
      </g>
     </g>
    </g>
    <g id="ytick_4">
     <g id="line2d_11">
      <g>
       <use style="stroke:#000000;stroke-width:0.8;" x="54" xlink:href="#m4948c141fa" y="91.152"/>
      </g>
     </g>
     <g id="text_12">
      <!-- 200 -->
      <g transform="translate(27.9125 94.951219)scale(0.1 -0.1)">
       <use xlink:href="#DejaVuSans-50"/>
       <use x="63.623047" xlink:href="#DejaVuSans-48"/>
       <use x="127.246094" xlink:href="#DejaVuSans-48"/>
      </g>
     </g>
    </g>
    <g id="ytick_5">
     <g id="line2d_12">
      <g>
       <use style="stroke:#000000;stroke-width:0.8;" x="54" xlink:href="#m4948c141fa" y="58.536"/>
      </g>
     </g>
     <g id="text_13">
      <!-- 300 -->
      <g transform="translate(27.9125 62.335219)scale(0.1 -0.1)">
       <defs>
        <path d="M 40.578125 39.3125 
Q 47.65625 37.796875 51.625 33 
Q 55.609375 28.21875 55.609375 21.1875 
Q 55.609375 10.40625 48.1875 4.484375 
Q 40.765625 -1.421875 27.09375 -1.421875 
Q 22.515625 -1.421875 17.65625 -0.515625 
Q 12.796875 0.390625 7.625 2.203125 
L 7.625 11.71875 
Q 11.71875 9.328125 16.59375 8.109375 
Q 21.484375 6.890625 26.8125 6.890625 
Q 36.078125 6.890625 40.9375 10.546875 
Q 45.796875 14.203125 45.796875 21.1875 
Q 45.796875 27.640625 41.28125 31.265625 
Q 36.765625 34.90625 28.71875 34.90625 
L 20.21875 34.90625 
L 20.21875 43.015625 
L 29.109375 43.015625 
Q 36.375 43.015625 40.234375 45.921875 
Q 44.09375 48.828125 44.09375 54.296875 
Q 44.09375 59.90625 40.109375 62.90625 
Q 36.140625 65.921875 28.71875 65.921875 
Q 24.65625 65.921875 20.015625 65.03125 
Q 15.375 64.15625 9.8125 62.3125 
L 9.8125 71.09375 
Q 15.4375 72.65625 20.34375 73.4375 
Q 25.25 74.21875 29.59375 74.21875 
Q 40.828125 74.21875 47.359375 69.109375 
Q 53.90625 64.015625 53.90625 55.328125 
Q 53.90625 49.265625 50.4375 45.09375 
Q 46.96875 40.921875 40.578125 39.3125 
z
" id="DejaVuSans-51"/>
       </defs>
       <use xlink:href="#DejaVuSans-51"/>
       <use x="63.623047" xlink:href="#DejaVuSans-48"/>
       <use x="127.246094" xlink:href="#DejaVuSans-48"/>
      </g>
     </g>
    </g>
    <g id="ytick_6">
     <g id="line2d_13">
      <g>
       <use style="stroke:#000000;stroke-width:0.8;" x="54" xlink:href="#m4948c141fa" y="25.92"/>
      </g>
     </g>
     <g id="text_14">
      <!-- 400 -->
      <g transform="translate(27.9125 29.719219)scale(0.1 -0.1)">
       <use xlink:href="#DejaVuSans-52"/>
       <use x="63.623047" xlink:href="#DejaVuSans-48"/>
       <use x="127.246094" xlink:href="#DejaVuSans-48"/>
      </g>
     </g>
    </g>
    <g id="text_15">
     <!-- dV/dt -->
     <g transform="translate(13.453125 120.873281)rotate(-90)scale(0.1 -0.1)">
      <defs>
       <path d="M 45.40625 46.390625 
L 45.40625 75.984375 
L 54.390625 75.984375 
L 54.390625 0 
L 45.40625 0 
L 45.40625 8.203125 
Q 42.578125 3.328125 38.25 0.953125 
Q 33.9375 -1.421875 27.875 -1.421875 
Q 17.96875 -1.421875 11.734375 6.484375 
Q 5.515625 14.40625 5.515625 27.296875 
Q 5.515625 40.1875 11.734375 48.09375 
Q 17.96875 56 27.875 56 
Q 33.9375 56 38.25 53.625 
Q 42.578125 51.265625 45.40625 46.390625 
z
M 14.796875 27.296875 
Q 14.796875 17.390625 18.875 11.75 
Q 22.953125 6.109375 30.078125 6.109375 
Q 37.203125 6.109375 41.296875 11.75 
Q 45.40625 17.390625 45.40625 27.296875 
Q 45.40625 37.203125 41.296875 42.84375 
Q 37.203125 48.484375 30.078125 48.484375 
Q 22.953125 48.484375 18.875 42.84375 
Q 14.796875 37.203125 14.796875 27.296875 
z
" id="DejaVuSans-100"/>
       <path d="M 25.390625 72.90625 
L 33.6875 72.90625 
L 8.296875 -9.28125 
L 0 -9.28125 
z
" id="DejaVuSans-47"/>
       <path d="M 18.3125 70.21875 
L 18.3125 54.6875 
L 36.8125 54.6875 
L 36.8125 47.703125 
L 18.3125 47.703125 
L 18.3125 18.015625 
Q 18.3125 11.328125 20.140625 9.421875 
Q 21.96875 7.515625 27.59375 7.515625 
L 36.8125 7.515625 
L 36.8125 0 
L 27.59375 0 
Q 17.1875 0 13.234375 3.875 
Q 9.28125 7.765625 9.28125 18.015625 
L 9.28125 47.703125 
L 2.6875 47.703125 
L 2.6875 54.6875 
L 9.28125 54.6875 
L 9.28125 70.21875 
z
" id="DejaVuSans-116"/>
      </defs>
      <use xlink:href="#DejaVuSans-100"/>
      <use x="63.476562" xlink:href="#DejaVuSans-86"/>
      <use x="131.884766" xlink:href="#DejaVuSans-47"/>
      <use x="165.576172" xlink:href="#DejaVuSans-100"/>
      <use x="229.052734" xlink:href="#DejaVuSans-116"/>
     </g>
    </g>
   </g>
   <g id="line2d_14">
    <path clip-path="url(#p3f2caab034)" d="M 17.73 156.45016 
L 17.380944 156.401258 
L 17.010228 156.383985 
L 19.32435 156.366871 
L 23.442349 156.384 
L 23.408941 156.384843 
L 23.408869 146.957479 
L 25.021646 140.471476 
L 26.13121 144.789767 
L 27.005207 146.937634 
L 27.74731 148.207574 
L 28.999533 149.697607 
L 30.537584 150.940295 
L 32.217659 151.916996 
L 34.262089 152.804743 
L 36.687523 153.588073 
L 39.409426 154.218997 
L 42.495206 154.695621 
L 46.317643 155.04547 
L 51.902327 155.307324 
L 61.779649 155.515417 
L 84.838576 155.723239 
L 108.432075 155.779466 
L 113.48521 155.591199 
L 116.063121 155.292323 
L 117.795764 154.880778 
L 119.132093 154.34716 
L 120.343079 153.611865 
L 121.435155 152.661286 
L 122.539647 151.331298 
L 123.52108 149.75539 
L 124.131523 148.552328 
L 124.860935 146.860962 
L 125.76074 144.361441 
L 126.917775 140.467344 
L 128.483789 134.224097 
L 130.708928 124.84606 
L 133.879352 113.526291 
L 138.041097 103.506122 
L 142.925788 96.788728 
L 148.236756 92.971302 
L 153.774539 91.065925 
L 159.411482 90.37742 
L 165.067056 90.390306 
L 170.701794 90.626577 
L 176.316946 90.629259 
L 181.951225 90.009986 
L 187.672324 88.501585 
L 193.564663 85.993804 
L 199.714796 82.557125 
L 213.045725 74.189909 
L 220.256991 70.402085 
L 227.755655 67.861096 
L 235.401638 67.279374 
L 242.999824 69.141187 
L 250.327285 73.563245 
L 257.168938 80.26273 
L 263.35024 88.648582 
L 268.757227 97.990672 
L 273.340268 107.589552 
L 277.105063 116.889911 
L 280.096983 125.522554 
L 282.384891 133.290857 
L 284.047797 140.13035 
L 285.165592 146.063385 
L 285.813465 151.161085 
L 286.059137 155.51596 
L 285.961971 159.224772 
L 285.573133 162.37907 
L 284.936324 165.060682 
L 284.088712 167.340307 
L 283.061901 169.277784 
L 281.882822 170.923167 
L 280.574515 172.318045 
L 279.156799 173.496972 
L 277.646799 174.488684 
L 276.059419 175.31719 
L 274.407678 176.002721 
L 272.703015 176.562468 
L 269.174085 177.361538 
L 265.540183 177.810669 
L 261.854392 177.984694 
L 258.158396 177.943374 
L 252.664204 177.581636 
L 247.297551 176.97193 
L 240.424767 175.934255 
L 230.834326 174.190586 
L 206.029409 169.484964 
L 200.594639 168.750876 
L 196.428438 168.420965 
L 193.349386 168.388938 
L 190.247088 168.619268 
L 188.128206 168.959478 
L 184.806768 169.758728 
L 176.084899 172.107951 
L 171.948009 172.839602 
L 169.104122 173.130112 
L 166.225511 173.248637 
L 161.903106 173.141209 
L 157.647051 172.746004 
L 152.178882 171.948451 
L 138.66506 169.587486 
L 130.178973 167.971149 
L 124.562178 166.664689 
L 119.642536 165.261198 
L 115.455028 163.82789 
L 110.983475 162.053668 
L 101.184668 158.046865 
L 99.021059 157.467458 
L 97.007224 157.164549 
L 90.429145 156.414818 
L 90.469453 156.321239 
L 90.493043 156.30898 
L 90.925887 156.229212 
L 92.633877 156.274111 
L 93.85369 156.272488 
L 95.877029 156.255138 
L 101.93545 156.196767 
L 122.392617 155.906927 
L 125.59339 155.584968 
L 127.965281 155.126662 
L 129.914462 154.520941 
L 131.610152 153.751504 
L 133.18755 152.760755 
L 134.609897 151.570536 
L 136.020782 150.03532 
L 137.233849 148.366599 
L 138.808544 145.613097 
L 139.806595 143.468762 
L 141.018105 140.406037 
L 142.540132 135.840836 
L 147.240257 119.092262 
L 150.912597 107.969004 
L 155.523175 99.100563 
L 160.712744 94.338715 
L 166.137987 92.653849 
L 171.615805 92.499901 
L 177.067385 92.960609 
L 187.815106 94.047082 
L 193.131089 94.301319 
L 198.436315 94.327345 
L 209.07019 94.178741 
L 214.390026 94.402466 
L 219.674094 95.124072 
L 224.870477 96.534284 
L 229.913284 98.754634 
L 234.729806 101.816999 
L 239.248698 105.660995 
L 243.407583 110.149469 
L 247.158579 115.096308 
L 250.471151 120.297853 
L 253.332258 125.560729 
L 255.744447 130.7209 
L 257.722744 135.652781 
L 259.291179 140.27044 
L 260.479479 144.523338 
L 261.320321 148.389375 
L 261.847213 151.867479 
L 262.093015 154.97084 
L 262.088979 157.721458 
L 261.864201 160.146002 
L 261.445369 162.272954 
L 260.856708 164.130713 
L 260.120048 165.746472 
L 259.254961 167.145587 
L 258.278938 168.351301 
L 257.207575 169.384698 
L 256.054757 170.264726 
L 254.832837 171.008396 
L 253.552791 171.630937 
L 250.85621 172.565554 
L 248.030518 173.160864 
L 245.127106 173.490556 
L 242.186086 173.613654 
L 237.77002 173.511564 
L 233.413503 173.170418 
L 227.780002 172.490519 
L 219.825025 171.252221 
L 197.780675 167.603225 
L 193.093875 167.132556 
L 189.445764 167.012924 
L 186.7065 167.152982 
L 183.89656 167.584615 
L 181.941494 168.085243 
L 178.809503 169.16113 
L 174.148832 170.841822 
L 171.609481 171.578853 
L 168.956092 172.166163 
L 166.217589 172.564707 
L 163.428308 172.762304 
L 160.621453 172.774475 
L 157.827366 172.616848 
L 153.718808 172.117471 
L 148.490593 171.175614 
L 137.977683 168.941553 
L 128.194314 166.72641 
L 122.456798 165.203956 
L 117.630168 163.692364 
L 112.712936 161.894179 
L 101.074051 157.457986 
L 98.96767 156.945218 
L 97.087242 156.707229 
L 89.103611 156.383982 
L 89.836804 156.300473 
L 93.978189 156.20412 
L 107.21596 156.148072 
L 119.413549 156.026414 
L 123.337312 155.777912 
L 125.855036 155.413137 
L 127.765945 154.934462 
L 129.382775 154.322311 
L 130.821506 153.556836 
L 132.223483 152.546792 
L 133.327776 151.518773 
L 134.240698 150.480853 
L 135.369418 148.918395 
L 136.836932 146.337659 
L 137.76821 144.327199 
L 138.89963 141.455055 
L 140.322279 137.169252 
L 142.186921 130.632796 
L 144.727838 121.238171 
L 148.199728 110.280485 
L 152.615305 101.144407 
L 157.650211 95.908869 
L 162.961491 93.822109 
L 168.353404 93.409046 
L 173.735352 93.730633 
L 184.361226 94.736316 
L 189.619036 94.948743 
L 194.871673 94.859733 
L 210.80161 93.776662 
L 216.165551 93.824598 
L 221.504378 94.476917 
L 226.756718 95.92517 
L 231.847776 98.27813 
L 236.697568 101.543661 
L 241.229953 105.630938 
L 245.380487 110.372079 
L 249.10175 115.554919 
L 252.365595 120.95771 
L 255.162539 126.377621 
L 257.499136 131.648522 
L 259.394326 136.648069 
L 260.875593 141.296593 
L 261.975505 145.550986 
L 262.728923 149.396477 
L 263.170942 152.838454 
L 263.335501 155.895452 
L 263.254524 158.593631 
L 262.957473 160.962791 
L 262.471176 163.033665 
L 261.819837 164.83623 
L 261.025155 166.398729 
L 260.106501 167.74718 
L 259.081123 168.905222 
L 257.964349 169.894123 
L 256.769788 170.732884 
L 255.509518 171.438492 
L 254.194241 172.026062 
L 251.435543 172.899397 
L 248.557295 173.443814 
L 245.60924 173.731522 
L 242.630094 173.820097 
L 238.166553 173.677609 
L 233.771487 173.306659 
L 228.096485 172.598994 
L 220.092917 171.335887 
L 198.898584 167.799876 
L 194.136109 167.287909 
L 190.44192 167.124364 
L 187.679458 167.219615 
L 184.859782 167.589776 
L 182.90814 168.037856 
L 179.799481 169.027296 
L 173.964477 171.011712 
L 171.401798 171.681358 
L 168.736554 172.20257 
L 165.997298 172.539265 
L 163.216996 172.685771 
L 160.426825 172.659109 
L 156.283932 172.332038 
L 152.261262 171.748215 
L 145.943242 170.541569 
L 130.955807 167.347919 
L 124.839621 165.845796 
L 119.628081 164.329494 
L 114.771447 162.654553 
L 109.111983 160.423771 
L 102.732826 157.944025 
L 100.226608 157.200392 
L 98.285467 156.841271 
L 96.503006 156.759459 
L 92.713106 156.584875 
L 90.973048 156.383747 
L 91.061327 156.364552 
L 93.320832 156.265128 
L 101.051085 156.183804 
L 120.828491 156.002544 
L 124.071165 155.726874 
L 126.326351 155.319605 
L 128.099972 154.778909 
L 129.560046 154.11809 
L 130.917599 153.266172 
L 132.141216 152.244883 
L 133.353509 150.935236 
L 134.393292 149.524555 
L 135.736959 147.228845 
L 136.583544 145.467322 
L 137.604602 142.984145 
L 138.876014 139.326446 
L 140.522837 133.762528 
L 142.746133 125.512022 
L 145.804467 115.044378 
L 149.818585 105.189742 
L 154.562867 98.743478 
L 159.679823 95.791214 
L 164.929182 94.946247 
L 170.190696 95.118875 
L 185.684301 96.788822 
L 190.768097 96.957378 
L 195.851107 96.826531 
L 211.275393 95.821876 
L 216.460887 95.958843 
L 221.613031 96.702102 
L 226.671366 98.218259 
L 231.564123 100.594362 
L 236.215951 103.824295 
L 240.556126 107.813693 
L 244.525441 112.400908 
L 248.080827 117.387254 
L 251.19707 122.567752 
L 253.866167 127.755865 
L 256.094819 132.799029 
L 257.901124 137.584501 
L 259.311069 142.038436 
L 260.355387 146.120267 
L 261.067006 149.815425 
L 261.47915 153.128067 
L 261.624036 156.074685 
L 261.532068 158.679091 
L 261.231388 160.968765 
L 260.747699 162.972311 
L 260.104249 164.71785 
L 259.32193 166.232053 
L 258.419427 167.539623 
L 257.413407 168.663116 
L 256.318696 169.622935 
L 255.148468 170.437396 
L 253.914417 171.122874 
L 251.295157 172.163782 
L 248.530509 172.844455 
L 245.67499 173.243583 
L 242.771121 173.423552 
L 238.394699 173.388848 
L 234.062758 173.098735 
L 228.444718 172.468427 
L 221.770691 171.485 
L 208.630817 169.250276 
L 200.301368 167.928496 
L 195.496916 167.348974 
L 191.795791 167.095824 
L 189.052861 167.087976 
L 186.284793 167.308109 
L 184.39201 167.626415 
L 181.41541 168.417494 
L 172.160005 171.372724 
L 169.545507 171.923022 
L 166.850252 172.307143 
L 164.105271 172.50494 
L 161.341655 172.529793 
L 157.221713 172.2821 
L 153.203007 171.762067 
L 148.092537 170.851781 
L 135.700577 168.312296 
L 127.251577 166.409325 
L 121.694993 164.914398 
L 117.034779 163.426951 
L 112.305723 161.673723 
L 101.427363 157.501349 
L 99.194405 156.95036 
L 97.5684 156.756313 
L 89.411303 156.383798 
L 89.918496 156.318217 
L 93.333063 156.230386 
L 105.133397 156.181734 
L 119.45794 156.074125 
L 123.059717 155.832821 
L 125.325251 155.470581 
L 127.049751 154.983938 
L 128.477061 154.370788 
L 129.674565 153.655947 
L 130.7363 152.826439 
L 131.767621 151.803694 
L 132.632649 150.749055 
L 133.719345 149.123801 
L 135.16366 146.352415 
L 136.100232 144.130566 
L 137.259998 140.886401 
L 138.751587 135.972267 
L 143.508157 118.723049 
L 147.19517 108.639208 
L 151.676416 101.34838 
L 156.610756 97.617783 
L 161.730239 96.299331 
L 166.890142 96.23756 
L 172.020193 96.752058 
L 182.104798 98.028905 
L 187.075562 98.361456 
L 192.031392 98.368638 
L 197.000928 98.076644 
L 207.058606 97.100877 
L 212.148969 96.812498 
L 217.250199 96.960804 
L 222.315189 97.753281 
L 227.280841 99.340239 
L 232.074331 101.790087 
L 236.620859 105.079785 
L 240.851543 109.102583 
L 244.709843 113.690663 
L 248.15559 118.644953 
L 251.166302 123.76472 
L 253.736151 128.870282 
L 255.873395 133.816593 
L 257.597021 138.498003 
L 258.933362 142.84632 
L 259.91307 146.825143 
L 260.568707 150.42265 
L 260.932948 153.644552 
L 261.037377 156.508032 
L 260.911729 159.037045 
L 260.583489 161.25883 
L 260.077734 163.201553 
L 259.417131 164.892809 
L 258.622033 166.358727 
L 257.710638 167.623486 
L 256.699163 168.709138 
L 255.602032 169.635623 
L 254.432053 170.420835 
L 253.200587 171.080762 
L 250.592329 172.080323 
L 247.844764 172.730713 
L 245.010702 173.108445 
L 242.131303 173.274235 
L 237.794889 173.228528 
L 233.504549 172.936322 
L 227.941302 172.312028 
L 220.060156 171.139616 
L 198.089165 167.6132 
L 193.392921 167.168037 
L 189.727945 167.078495 
L 186.967876 167.251602 
L 184.127475 167.723459 
L 181.11994 168.555166 
L 173.067049 171.086039 
L 170.500506 171.652727 
L 167.848825 172.073057 
L 165.13997 172.317273 
L 162.404425 172.389473 
L 158.311054 172.216349 
L 154.299972 171.764422 
L 149.177885 170.910247 
L 138.797599 168.850943 
L 129.034043 166.76083 
L 123.258254 165.292845 
L 118.368302 163.810831 
L 113.845802 162.202859 
L 106.872561 159.424201 
L 102.433645 157.764344 
L 100.00132 157.083901 
L 98.216781 156.796403 
L 96.007297 156.727446 
L 92.85552 156.521672 
L 92.289421 156.383241 
L 92.385082 156.348023 
L 93.571759 156.289431 
L 119.142238 156.142645 
L 122.873199 155.925882 
L 125.104224 155.583781 
L 126.820802 155.097265 
L 128.137134 154.521451 
L 129.470511 153.690655 
L 130.528528 152.803284 
L 131.576945 151.676204 
L 132.474118 150.477902 
L 133.627333 148.56371 
L 134.348641 147.123518 
L 135.211631 145.12995 
L 136.274002 142.252297 
L 137.629307 137.935098 
L 141.900702 122.400331 
L 145.244255 112.476222 
L 149.412518 104.600098 
L 154.103532 100.168415 
L 159.029975 98.403119 
L 164.022998 98.130977 
L 168.996 98.602989 
L 183.524429 100.79554 
L 188.258383 101.130863 
L 192.977228 101.156538 
L 197.70679 100.924679 
L 207.258279 100.213485 
L 212.075048 100.100427 
L 216.887367 100.413889 
L 221.650508 101.325944 
L 226.306792 102.955556 
L 230.791136 105.350405 
L 235.037705 108.481446 
L 238.986385 112.251184 
L 242.588021 116.512649 
L 245.807643 121.093955 
L 248.625501 125.822098 
L 251.036225 130.541292 
L 253.046715 135.12418 
L 254.67339 139.476232 
L 255.939324 143.534599 
L 256.871687 147.263761 
L 257.49963 150.649871 
L 257.852691 153.694955 
L 257.959676 156.411844 
L 257.847928 158.820062 
L 257.542911 160.942741 
L 257.068011 162.804435 
L 256.444492 164.429662 
L 255.691546 165.841999 
L 254.826401 167.063555 
L 253.864469 168.114688 
L 252.819496 169.013981 
L 251.703711 169.778217 
L 250.527991 170.422489 
L 248.03425 171.40379 
L 245.403063 172.049685 
L 242.685206 172.43324 
L 239.920301 172.612613 
L 235.750032 172.597309 
L 231.616958 172.342986 
L 226.247279 171.774552 
L 218.620108 170.686779 
L 197.213079 167.396769 
L 192.596766 167.013038 
L 189.879948 166.963062 
L 187.151795 167.115723 
L 184.350372 167.552136 
L 181.392965 168.333828 
L 173.503221 170.783561 
L 169.697171 171.588681 
L 167.061761 171.946892 
L 164.379546 172.134523 
L 160.330784 172.120953 
L 156.325156 171.81098 
L 152.429956 171.280022 
L 146.289253 170.181184 
L 132.517959 167.420081 
L 126.332647 166.002323 
L 121.006622 164.550971 
L 116.550025 163.111975 
L 111.610207 161.267543 
L 101.979275 157.582619 
L 99.689628 156.972919 
L 97.910535 156.716263 
L 95.188275 156.681729 
L 89.152731 156.402872 
L 89.117333 156.382683 
L 89.34509 156.340867 
L 91.47703 156.265343 
L 100.414997 156.20834 
L 120.227013 156.087519 
L 123.149661 155.835473 
L 125.067157 155.458864 
L 126.521826 154.970724 
L 127.830938 154.312216 
L 129.097979 153.408639 
L 130.291563 152.248205 
L 131.533774 150.639463 
L 132.65693 148.755988 
L 133.361023 147.335417 
L 134.204977 145.36517 
L 135.246143 142.515559 
L 136.577613 138.233668 
L 140.789049 122.838249 
L 144.090395 113.023756 
L 148.207192 105.204753 
L 152.846227 100.737345 
L 157.727315 98.886604 
L 162.682978 98.530778 
L 167.624941 98.943836 
L 182.074371 101.098805 
L 186.782316 101.427068 
L 191.476495 101.419485 
L 196.185738 101.111356 
L 205.727929 100.072857 
L 210.566437 99.704244 
L 215.424797 99.713707 
L 220.261686 100.294735 
L 225.020642 101.594373 
L 229.635187 103.690348 
L 234.035561 106.579807 
L 238.155772 110.183052 
L 241.939696 114.360262 
L 245.345263 118.936346 
L 248.346304 123.727161 
L 250.93225 128.561375 
L 253.106245 133.295048 
L 254.882347 137.818244 
L 256.282506 142.055433 
L 257.333702 145.961636 
L 258.065581 149.516535 
L 258.5086 152.718296 
L 258.692716 155.577807 
L 258.646524 158.114028 
L 258.39674 160.350426 
L 257.967942 162.312423 
L 257.382495 164.025689 
L 256.660589 165.515036 
L 255.820343 166.803797 
L 254.877952 167.913517 
L 253.847853 168.863835 
L 252.742881 169.672476 
L 251.574439 170.355385 
L 249.086432 171.399433 
L 246.451664 172.092537 
L 243.723236 172.511349 
L 240.942575 172.716641 
L 236.741935 172.727223 
L 232.573415 172.487403 
L 227.15267 171.926535 
L 220.692274 171.026786 
L 207.907351 168.946603 
L 199.754345 167.714438 
L 195.029939 167.189543 
L 191.37493 166.987975 
L 188.653635 167.029594 
L 185.892934 167.311489 
L 183.020635 167.912074 
L 179.951763 168.825069 
L 174.256409 170.551155 
L 170.508322 171.373741 
L 167.907635 171.760205 
L 165.254156 171.985884 
L 162.576156 172.050839 
L 158.568977 171.889124 
L 154.637672 171.473108 
L 149.605628 170.674798 
L 139.365914 168.713809 
L 129.684891 166.702766 
L 123.92923 165.282315 
L 119.033608 163.838375 
L 114.48194 162.256692 
L 108.253252 159.804456 
L 102.918383 157.77926 
L 100.473536 157.081803 
L 98.710512 156.787395 
L 96.58965 156.718318 
L 93.172901 156.507106 
L 92.513478 156.383514 
L 92.788505 156.351537 
L 106.057153 156.239247 
L 120.031338 156.136472 
L 123.027002 155.901239 
L 124.894314 155.54869 
L 126.419247 155.040321 
L 127.66635 154.407194 
L 128.876279 153.541541 
L 130.016271 152.436439 
L 131.200461 150.917672 
L 132.267161 149.158764 
L 133.728044 146.03871 
L 134.703029 143.452834 
L 135.940329 139.602124 
L 139.807025 125.531432 
L 142.852409 115.91877 
L 146.729885 107.653733 
L 151.189265 102.554444 
L 155.939136 100.260619 
L 160.790947 99.666314 
L 165.642493 99.97814 
L 170.440956 100.726573 
L 179.813246 102.381578 
L 184.403284 102.920457 
L 188.959878 103.146215 
L 193.511293 103.060735 
L 198.082512 102.733783 
L 207.336674 101.903859 
L 212.010416 101.760032 
L 216.681834 102.048161 
L 221.306283 102.927833 
L 225.827205 104.506745 
L 230.181531 106.825236 
L 234.305802 109.852167 
L 238.142275 113.492671 
L 241.643722 117.606322 
L 244.776425 122.029712 
L 247.521111 126.598311 
L 249.87221 131.163488 
L 251.835879 135.603216 
L 253.427422 139.82612 
L 254.668629 143.77063 
L 255.585338 147.401162 
L 256.205428 150.702932 
L 256.557265 153.676571 
L 256.668619 156.333313 
L 256.565937 158.691115 
L 256.273914 160.771673 
L 255.815286 162.598287 
L 255.210764 164.194411 
L 254.479068 165.582737 
L 253.637028 166.784638 
L 252.699709 167.819871 
L 251.68056 168.706512 
L 250.591553 169.460948 
L 249.443334 170.097908 
L 247.006002 171.070848 
L 244.43204 171.715131 
L 241.771211 172.102254 
L 239.062368 172.289033 
L 234.973184 172.289917 
L 230.916519 172.055417 
L 225.640345 171.515778 
L 218.134934 170.470463 
L 197.002776 167.280046 
L 192.432968 166.91194 
L 189.740983 166.870487 
L 187.035607 167.030285 
L 184.255632 167.46825 
L 181.321412 168.230771 
L 173.53139 170.544563 
L 169.793265 171.302352 
L 167.208538 171.644671 
L 164.578529 171.82863 
L 160.607555 171.824137 
L 156.675002 171.542104 
L 152.843916 171.049396 
L 146.78952 170.005168 
L 133.161849 167.33099 
L 126.207287 165.754997 
L 121.018942 164.338774 
L 116.678151 162.937885 
L 111.863856 161.146611 
L 102.270472 157.492149 
L 99.998983 156.906987 
L 98.466658 156.714169 
L 90.173633 156.383672 
L 91.084712 156.308076 
L 96.233878 156.237968 
L 121.816748 156.00088 
L 123.919762 155.693835 
L 125.485907 155.255911 
L 126.780276 154.682666 
L 128.004578 153.897825 
L 128.985243 153.050941 
L 129.965034 151.965926 
L 130.809723 150.803506 
L 131.903701 148.932228 
L 132.592502 147.515305 
L 133.420972 145.544585 
L 134.446927 142.687747 
L 135.76415 138.39431 
L 139.945281 123.154481 
L 143.209595 113.651974 
L 147.255948 106.169836 
L 151.800318 101.899627 
L 156.577226 100.119057 
L 161.426219 99.784404 
L 166.260379 100.21806 
L 180.361826 102.591821 
L 184.937066 103.043859 
L 189.487347 103.164061 
L 194.042022 102.965415 
L 203.255773 101.988808 
L 207.932308 101.524624 
L 212.641207 101.332998 
L 217.350526 101.606354 
L 222.012659 102.50549 
L 226.568152 104.135621 
L 230.951399 106.530911 
L 235.097102 109.651593 
L 238.946458 113.393246 
L 242.452032 117.606363 
L 245.580601 122.12033 
L 248.313919 126.765815 
L 250.64773 131.392004 
L 252.589591 135.876671 
L 254.156158 140.129645 
L 255.370414 144.091452 
L 256.259188 147.728952 
L 256.851134 151.029747 
L 257.175203 153.996575 
L 257.259578 156.642473 
L 257.130983 158.986843 
L 256.81428 161.052476 
L 256.332292 162.863493 
L 255.705757 164.443943 
L 254.953383 165.816905 
L 254.09196 167.004021 
L 253.136492 168.025225 
L 252.10036 168.898671 
L 250.995461 169.640765 
L 249.83237 170.266228 
L 247.368065 171.218645 
L 244.770377 171.845405 
L 242.08859 172.217557 
L 239.361163 172.391504 
L 235.247816 172.376488 
L 231.170644 172.129213 
L 225.871642 171.576082 
L 218.339361 170.515708 
L 197.161647 167.287449 
L 192.591635 166.904263 
L 189.00758 166.871024 
L 186.294658 167.092498 
L 183.488964 167.607915 
L 180.509924 168.4323 
L 173.81582 170.39825 
L 170.11452 171.163811 
L 167.552551 171.51951 
L 164.942336 171.7229 
L 160.994675 171.747924 
L 157.077953 171.495003 
L 153.255408 171.02839 
L 147.204 170.008078 
L 134.509681 167.542622 
L 127.406459 165.980248 
L 122.079152 164.576014 
L 117.596062 163.172737 
L 113.025531 161.511267 
L 101.847723 157.292612 
L 99.765683 156.825069 
L 98.258397 156.716083 
L 94.833865 156.533326 
L 94.16287 156.383077 
L 94.218902 156.354082 
L 94.882831 156.313094 
L 95.982384 156.349695 
L 98.937663 156.289652 
L 110.235075 156.261666 
L 118.722019 156.201799 
L 118.737621 165.572047 
L 117.150112 171.98583 
L 116.068434 167.651931 
L 115.222376 165.509989 
L 114.507145 164.255872 
L 113.303427 162.810787 
L 112.284507 161.960322 
L 110.967702 161.147336 
L 109.123117 160.323639 
L 106.717919 159.543061 
L 103.261831 158.692896 
L 99.236567 157.929582 
L 95.534616 157.451069 
L 91.230287 157.134283 
L 84.622503 156.896187 
L 72.308904 156.711568 
L 38.991879 156.486633 
L 13.825898 156.383999 
L 20.883847 156.383295 
" style="fill:none;stroke:#000000;stroke-linecap:square;stroke-width:1.5;"/>
   </g>
   <g id="line2d_15">
    <path clip-path="url(#p3f2caab034)" d="M 17.73 156.45016 
L 17.380944 156.401258 
L 17.010228 156.383985 
L 19.32434 156.366872 
L 23.44225 156.384 
L 23.408849 156.384843 
L 23.408777 146.957479 
L 25.021554 140.471476 
L 26.131118 144.789767 
L 27.005115 146.937634 
L 27.747218 148.207574 
L 28.999442 149.697607 
L 30.537492 150.940295 
L 32.217567 151.916996 
L 34.261997 152.804743 
L 36.687431 153.588073 
L 39.409334 154.218998 
L 42.495113 154.695622 
L 46.317546 155.045472 
L 51.902212 155.30733 
L 61.779362 155.515451 
L 85.105898 155.726915 
L 113.020666 155.821507 
L 118.629996 155.63007 
L 121.719417 155.315291 
L 123.862359 154.881766 
L 125.499175 154.340487 
L 126.904281 153.659762 
L 128.241116 152.760783 
L 129.276973 151.850604 
L 130.612211 150.338265 
L 131.773987 148.652522 
L 133.304954 145.814004 
L 134.288776 143.581732 
L 135.495188 140.396376 
L 137.023965 135.708253 
L 141.74709 119.259818 
L 145.383697 108.644604 
L 149.914426 99.873243 
L 155.051652 94.409503 
L 160.517127 91.571878 
L 166.139818 90.294215 
L 171.823878 89.862829 
L 183.215208 89.735379 
L 188.92273 89.374174 
L 194.679362 88.503962 
L 200.535761 87.009343 
L 206.548094 84.87753 
L 212.769208 82.198415 
L 225.979593 76.09075 
L 232.976593 73.387971 
L 240.178692 71.56411 
L 247.487722 71.14228 
L 254.761989 72.554005 
L 261.829498 76.019679 
L 268.510852 81.472409 
L 274.645499 88.565377 
L 280.113376 96.761935 
L 284.845741 105.467084 
L 288.824327 114.145428 
L 292.071987 122.392143 
L 294.639711 129.951853 
L 296.594043 136.701205 
L 298.007077 142.614945 
L 298.949676 147.730581 
L 299.487518 152.119639 
L 299.67923 155.867406 
L 299.575898 159.060277 
L 299.221368 161.77878 
L 298.65295 164.094413 
L 297.902258 166.068741 
L 296.996068 167.753777 
L 295.957097 169.192889 
L 294.804702 170.422001 
L 293.555453 171.470812 
L 292.223625 172.363789 
L 290.821604 173.12119 
L 289.360198 173.759863 
L 286.296154 174.73492 
L 283.095351 175.377325 
L 279.808741 175.752131 
L 276.47756 175.909512 
L 273.135388 175.889749 
L 268.15979 175.600098 
L 263.290299 175.079701 
L 257.045286 174.153047 
L 249.729487 172.801727 
L 240.487565 170.84437 
L 219.883651 166.381051 
L 213.454695 165.237422 
L 207.689042 164.439918 
L 203.656894 164.080381 
L 200.394044 163.985758 
L 197.778671 164.111516 
L 195.765405 164.385584 
L 193.65458 164.888262 
L 191.376903 165.701811 
L 188.844382 166.876504 
L 182.701047 169.876182 
L 180.310714 170.80779 
L 177.771134 171.613549 
L 175.106465 172.264184 
L 172.344401 172.754411 
L 169.511544 173.093836 
L 165.18435 173.336575 
L 160.830198 173.324247 
L 155.07121 173.067041 
L 148.04391 172.527014 
L 141.288434 171.792019 
L 136.141246 171.029805 
L 131.284894 170.091805 
L 126.777651 168.995851 
L 122.666116 167.7896 
L 118.123086 166.218785 
L 113.551185 164.389919 
L 106.103295 161.087591 
L 101.457221 159.144742 
L 97.552525 157.778903 
L 94.067487 156.715962 
L 91.946873 156.706589 
L 85.815594 156.756507 
L 81.559931 156.566976 
L 79.328741 156.383627 
L 79.373289 156.360929 
L 80.08556 156.295526 
L 84.201449 156.191074 
L 97.058959 156.11056 
L 124.871971 155.979339 
L 128.499995 155.700704 
L 131.048879 155.293688 
L 133.081814 154.760728 
L 134.898426 154.06306 
L 136.516829 153.210644 
L 138.083137 152.124409 
L 139.300666 151.065168 
L 140.859144 149.382676 
L 142.193389 147.604279 
L 143.90585 144.79709 
L 144.973161 142.721591 
L 146.243238 139.912708 
L 147.791098 136.005868 
L 149.729563 130.476718 
L 152.223359 122.797308 
L 155.47563 113.281047 
L 159.597485 104.14896 
L 164.412089 97.998321 
L 169.586204 95.159349 
L 174.886504 94.345194 
L 180.199907 94.482599 
L 195.870012 96.152734 
L 201.003841 96.446064 
L 206.124295 96.443979 
L 211.25848 96.130328 
L 216.432594 95.543679 
L 226.97197 93.991986 
L 232.341275 93.386718 
L 237.74965 93.203985 
L 243.150218 93.686054 
L 248.47612 95.035408 
L 253.645838 97.373763 
L 258.57169 100.714711 
L 263.169833 104.960074 
L 267.369382 109.921038 
L 271.118794 115.355775 
L 274.38856 121.011279 
L 277.170419 126.658267 
L 279.474088 132.112691 
L 281.322795 137.243588 
L 282.748662 141.970492 
L 283.788682 146.255024 
L 284.481544 150.090384 
L 284.865405 153.491124 
L 284.976462 156.484824 
L 284.848156 159.105768 
L 284.510817 161.390567 
L 283.991624 163.375353 
L 283.314725 165.094152 
L 282.501476 166.57806 
L 281.570708 167.854926 
L 280.539011 168.949361 
L 279.421005 169.882996 
L 278.22958 170.674703 
L 276.976127 171.340961 
L 274.322284 172.352797 
L 271.527158 173.01333 
L 268.644178 173.396055 
L 265.715631 173.558897 
L 261.308517 173.490012 
L 256.956512 173.150674 
L 251.335256 172.430394 
L 244.706974 171.304325 
L 236.277245 169.621558 
L 216.454096 165.562205 
L 210.523725 164.594277 
L 205.79334 164.018225 
L 201.955943 163.741734 
L 198.825105 163.703547 
L 196.301455 163.852167 
L 193.688492 164.246326 
L 191.60789 164.790487 
L 189.350637 165.639679 
L 186.829353 166.853729 
L 180.66544 169.987792 
L 178.252364 170.958784 
L 175.684479 171.79005 
L 172.988207 172.454928 
L 170.192785 172.952052 
L 167.32594 173.291536 
L 164.414255 173.47721 
L 160.017778 173.498766 
L 155.64774 173.288889 
L 149.943922 172.781303 
L 143.105751 171.925918 
L 136.676969 170.86578 
L 131.889039 169.863263 
L 127.465681 168.740805 
L 122.500093 167.234077 
L 117.402604 165.406993 
L 112.00956 163.187436 
L 102.971893 159.386256 
L 100.015244 158.424362 
L 96.955203 157.684602 
L 94.472274 157.033964 
L 93.540064 156.577519 
L 93.218186 156.472413 
L 92.64547 156.576435 
L 88.363122 156.769457 
L 81.343052 156.503106 
L 80.342262 156.383774 
L 80.513804 156.340705 
L 82.141854 156.258148 
L 89.476054 156.153987 
L 106.862197 156.146049 
L 123.245205 156.083822 
L 127.545073 155.857817 
L 130.222083 155.510297 
L 132.348013 155.021034 
L 134.175938 154.376655 
L 135.793662 153.574823 
L 137.169151 152.676795 
L 138.624985 151.461444 
L 140.063687 149.940665 
L 141.288177 148.354402 
L 142.847536 145.890694 
L 143.811415 144.096385 
L 144.949722 141.697152 
L 146.324066 138.398263 
L 148.026752 133.756897 
L 153.016681 118.575157 
L 156.663549 109.157332 
L 161.096299 101.676426 
L 166.023012 97.560733 
L 171.159882 96.023118 
L 176.349653 95.835468 
L 181.518627 96.266107 
L 196.689912 98.139673 
L 201.653974 98.423536 
L 206.605885 98.409884 
L 211.572283 98.094918 
L 216.578079 97.523823 
L 226.773007 96.050466 
L 231.964143 95.489929 
L 237.190867 95.334155 
L 242.408653 95.805892 
L 247.554671 97.090959 
L 252.552606 99.301895 
L 257.320373 102.453786 
L 261.779077 106.460557 
L 265.86136 111.152827 
L 269.517302 116.310774 
L 272.717155 121.701159 
L 275.450901 127.109274 
L 277.725524 132.359327 
L 279.561082 137.322957 
L 280.986519 141.918253 
L 282.035906 146.102825 
L 282.74544 149.8647 
L 283.151239 153.213192 
L 283.287907 156.171033 
L 283.187674 158.768379 
L 282.879983 161.038486 
L 282.391377 163.014885 
L 281.74556 164.72963 
L 280.963592 166.21234 
L 280.064112 167.489856 
L 279.063584 168.586079 
L 277.976559 169.522132 
L 276.81589 170.316629 
L 275.592942 170.985833 
L 272.99934 172.003733 
L 270.263403 172.670545 
L 267.438507 173.05996 
L 264.56684 173.230249 
L 260.242471 173.17426 
L 255.969604 172.850068 
L 250.447334 172.152958 
L 243.931023 171.058467 
L 234.529929 169.190299 
L 216.859394 165.598692 
L 210.211058 164.510058 
L 205.527184 163.946371 
L 201.72456 163.677711 
L 198.619952 163.644753 
L 196.115766 163.797171 
L 193.520966 164.195155 
L 191.453169 164.741551 
L 189.208417 165.590424 
L 186.700359 166.798127 
L 180.574185 169.89176 
L 178.178752 170.849506 
L 175.630441 171.672101 
L 172.954672 172.334101 
L 170.179999 172.830906 
L 167.333722 173.173311 
L 162.98644 173.40956 
L 158.617517 173.357441 
L 152.865465 172.98044 
L 147.28239 172.391408 
L 140.627486 171.459455 
L 135.617882 170.564885 
L 130.93753 169.536831 
L 126.628813 168.399621 
L 121.809742 166.894055 
L 116.880949 165.093861 
L 111.681436 162.938749 
L 103.467301 159.488034 
L 100.421125 158.477991 
L 97.521127 157.765406 
L 94.539034 157.019919 
L 93.625967 156.571968 
L 93.339122 156.480278 
L 92.785801 156.571358 
L 88.888993 156.769475 
L 83.260761 156.583639 
L 80.37791 156.383779 
L 80.388238 156.373307 
L 80.73262 156.324821 
L 83.331226 156.234902 
L 93.146829 156.14885 
L 127.109114 155.955111 
L 129.909703 155.631572 
L 132.007166 155.175327 
L 133.764921 154.578117 
L 135.429773 153.767373 
L 136.709725 152.938719 
L 138.060179 151.828231 
L 139.388076 150.456398 
L 140.511242 149.045597 
L 141.929921 146.891495 
L 142.799342 145.347507 
L 143.818063 143.309922 
L 145.036078 140.54627 
L 146.527608 136.699584 
L 148.40372 131.267602 
L 150.824564 123.789878 
L 153.979978 114.707975 
L 157.954568 106.211522 
L 162.563569 100.590841 
L 167.499755 98.007687 
L 172.550687 97.292561 
L 177.609218 97.49984 
L 182.624688 98.126016 
L 192.460955 99.606384 
L 197.289701 100.149965 
L 202.081568 100.439017 
L 206.860863 100.435627 
L 211.65331 100.144254 
L 216.482453 99.612889 
L 226.310936 98.249263 
L 231.311595 97.734943 
L 236.344715 97.595704 
L 241.369196 98.03515 
L 246.327134 99.224426 
L 251.148151 101.269906 
L 255.756145 104.191995 
L 260.077247 107.920361 
L 264.047386 112.30801 
L 267.617842 117.15894 
L 270.758075 122.260597 
L 273.455731 127.412886 
L 275.714502 132.447822 
L 277.550772 137.238906 
L 278.989877 141.701692 
L 280.062646 145.788791 
L 280.802523 149.482211 
L 281.243416 152.785157 
L 281.418219 155.714879 
L 281.35789 158.296909 
L 281.090955 160.560782 
L 280.643319 162.537138 
L 280.038266 164.255872 
L 279.296586 165.745075 
L 278.436758 167.030469 
L 277.47517 168.13522 
L 276.426339 169.079986 
L 275.30312 169.883055 
L 274.116898 170.560563 
L 271.594687 171.59408 
L 268.927584 172.275237 
L 266.169142 172.678255 
L 263.361645 172.861782 
L 259.12927 172.825876 
L 254.943162 172.522466 
L 249.528083 171.854173 
L 243.131735 170.796212 
L 233.890907 168.98298 
L 216.474183 165.483712 
L 209.904491 164.418839 
L 205.271446 163.86698 
L 201.507711 163.605097 
L 198.433291 163.575947 
L 195.952268 163.730434 
L 193.380063 164.129593 
L 191.329134 164.675135 
L 189.101887 165.519397 
L 186.613309 166.715486 
L 181.663899 169.25325 
L 179.375186 170.248399 
L 176.924977 171.130314 
L 174.335592 171.86965 
L 171.633415 172.446705 
L 168.846248 172.866375 
L 164.562534 173.221151 
L 160.228141 173.270637 
L 155.913483 173.084149 
L 150.275786 172.597235 
L 143.513172 171.755386 
L 137.154568 170.709508 
L 132.417191 169.72521 
L 128.037196 168.626176 
L 123.113603 167.152728 
L 118.047534 165.365327 
L 112.668086 163.185315 
L 103.353007 159.305316 
L 100.469414 158.378255 
L 97.364844 157.636788 
L 94.915593 156.993695 
L 94.035499 156.546679 
L 93.787738 156.476773 
L 93.242041 156.571151 
L 89.447199 156.776675 
L 84.744332 156.628701 
L 80.334801 156.42162 
L 80.212657 156.383329 
L 80.483896 156.333407 
L 82.737876 156.2488 
L 91.7713 156.164805 
L 114.315862 156.211955 
L 125.183014 156.122295 
L 128.658142 155.89062 
L 131.02131 155.516419 
L 132.873878 155.008302 
L 134.430076 154.37465 
L 135.843908 153.586814 
L 137.236016 152.566552 
L 138.333811 151.558046 
L 139.758372 149.934984 
L 140.994555 148.197917 
L 142.602246 145.424665 
L 143.615326 143.358251 
L 144.830713 140.550413 
L 146.324162 136.640465 
L 148.20847 131.134891 
L 150.643822 123.640662 
L 153.810255 114.769002 
L 157.763386 106.75761 
L 162.300421 101.638437 
L 167.129349 99.361948 
L 172.05585 98.798848 
L 176.981113 99.093549 
L 181.857196 99.789497 
L 191.396325 101.431156 
L 196.06482 102.0829 
L 200.686248 102.501476 
L 205.283133 102.645144 
L 209.879982 102.509454 
L 214.500081 102.127938 
L 228.644639 100.431136 
L 233.449723 100.170627 
L 238.261717 100.36201 
L 243.03406 101.17451 
L 247.70705 102.732417 
L 252.212862 105.091777 
L 256.482209 108.229462 
L 260.451221 112.047603 
L 264.067354 116.391659 
L 267.293178 121.07702 
L 270.107732 125.915982 
L 272.505698 130.739377 
L 274.495057 135.409935 
L 276.093976 139.827286 
L 277.327607 143.926634 
L 278.225203 147.673548 
L 278.817806 151.057196 
L 279.136522 154.083657 
L 279.211352 156.770053 
L 279.070475 159.139935 
L 278.739862 161.219917 
L 278.243138 163.037364 
L 277.601594 164.618918 
L 276.834295 165.989633 
L 275.958246 167.17252 
L 274.988577 168.188407 
L 273.938728 169.055964 
L 272.820636 169.791834 
L 271.644893 170.41076 
L 269.157056 171.348582 
L 266.53859 171.957269 
L 263.839531 172.306123 
L 261.099342 172.450415 
L 256.977864 172.37783 
L 252.909246 172.058472 
L 247.653329 171.391947 
L 241.449927 170.359725 
L 232.486248 168.612234 
L 215.540022 165.267716 
L 209.115014 164.256901 
L 204.568071 163.740788 
L 200.861368 163.509562 
L 197.821507 163.51142 
L 195.357083 163.700228 
L 192.787157 164.150595 
L 190.724211 164.750665 
L 188.469374 165.659961 
L 185.01587 167.397012 
L 180.898583 169.438916 
L 178.581703 170.388435 
L 176.112076 171.216916 
L 173.512533 171.901574 
L 170.80946 172.426696 
L 168.029786 172.800263 
L 163.77088 173.096555 
L 159.474509 173.101968 
L 155.207354 172.88508 
L 149.642611 172.372047 
L 142.98147 171.506994 
L 136.733262 170.442821 
L 132.088738 169.450697 
L 126.791067 168.066723 
L 122.106627 166.599919 
L 117.313922 164.859148 
L 111.710059 162.552311 
L 104.200925 159.434352 
L 101.2075 158.439961 
L 98.255073 157.704546 
L 95.491742 156.989472 
L 94.615934 156.546828 
L 94.364103 156.479243 
L 93.814961 156.571756 
L 90.408689 156.780645 
L 87.467215 156.677162 
L 80.262421 156.383706 
L 80.377653 156.351326 
L 81.740027 156.279263 
L 88.434824 156.189661 
L 105.881066 156.201499 
L 125.303609 156.16949 
L 128.824014 155.95517 
L 131.104136 155.604153 
L 132.97316 155.093981 
L 134.59797 154.418248 
L 135.988905 153.616446 
L 137.37392 152.564164 
L 138.477298 151.510424 
L 139.924526 149.789698 
L 141.195227 147.918492 
L 142.869381 144.879633 
L 143.937004 142.584132 
L 145.230285 139.437695 
L 146.836207 135.036102 
L 151.539667 120.88761 
L 154.955302 112.295836 
L 159.082344 105.508049 
L 163.659245 101.737097 
L 168.431428 100.318175 
L 173.25108 100.197276 
L 178.043947 100.722615 
L 187.425759 102.455157 
L 191.99996 103.304533 
L 196.506683 103.990665 
L 200.9635 104.446439 
L 205.392248 104.638787 
L 209.816158 104.567774 
L 214.257055 104.26694 
L 227.817051 102.837684 
L 232.413262 102.627285 
L 237.01384 102.81851 
L 241.577336 103.564117 
L 246.050355 104.979275 
L 250.371743 107.121389 
L 254.478285 109.979222 
L 258.31075 113.475132 
L 261.819206 117.479134 
L 264.96666 121.830382 
L 267.730697 126.360575 
L 270.103118 130.913529 
L 272.088228 135.358255 
L 273.700237 139.595266 
L 274.960473 143.556656 
L 275.894761 147.202619 
L 276.531239 150.516081 
L 276.898654 153.496884 
L 277.025171 156.156469 
L 276.937581 158.513568 
L 276.660841 160.590875 
L 276.217861 162.412678 
L 275.629445 164.003276 
L 274.914343 165.385988 
L 274.08937 166.582587 
L 273.169551 167.613025 
L 272.168289 168.495399 
L 271.097513 169.24597 
L 269.967842 169.879255 
L 267.568555 170.844406 
L 265.034138 171.478402 
L 262.414952 171.850872 
L 259.75072 172.017431 
L 255.736238 171.976567 
L 251.76668 171.687475 
L 246.631059 171.05942 
L 240.560122 170.072117 
L 231.771075 168.387371 
L 215.100376 165.141928 
L 208.761966 164.155572 
L 204.272015 163.650729 
L 200.610031 163.424649 
L 197.606175 163.427325 
L 195.170846 163.613565 
L 192.63165 164.056358 
L 190.594223 164.644661 
L 188.368839 165.534786 
L 184.964078 167.235825 
L 180.907927 169.245774 
L 178.624925 170.187199 
L 176.190041 171.012961 
L 173.62525 171.701289 
L 170.955774 172.234505 
L 168.208234 172.617133 
L 163.994143 172.931991 
L 159.737219 172.958157 
L 155.504982 172.755199 
L 149.982941 172.250623 
L 143.372967 171.388827 
L 137.174101 170.331797 
L 131.46739 169.090218 
L 126.325003 167.704926 
L 121.791923 166.257316 
L 117.164761 164.559623 
L 111.260684 162.120766 
L 104.499163 159.344105 
L 101.420474 158.336915 
L 98.292143 157.574412 
L 95.988582 156.948408 
L 95.189359 156.524095 
L 94.988733 156.483712 
L 94.393508 156.575987 
L 91.913515 156.766785 
L 89.168301 156.717117 
L 85.830114 156.638894 
L 80.884262 156.426033 
L 80.717404 156.383298 
L 81.026203 156.333393 
L 83.579845 156.250929 
L 93.434833 156.18627 
L 128.373408 156.053097 
L 130.753038 155.74412 
L 132.587206 155.297757 
L 134.203299 154.685438 
L 135.590029 153.945721 
L 136.795543 153.103818 
L 138.095563 151.948042 
L 139.402536 150.482639 
L 140.530805 148.938042 
L 141.986598 146.518052 
L 142.895867 144.74628 
L 143.977598 142.372588 
L 145.292963 139.111617 
L 146.932587 134.550223 
L 151.749818 120.175159 
L 155.222991 111.88305 
L 159.363116 105.649648 
L 163.902709 102.351883 
L 168.607021 101.201433 
L 173.343436 101.218687 
L 178.044795 101.822811 
L 187.229243 103.65326 
L 191.699119 104.547933 
L 196.097445 105.286393 
L 200.440983 105.80514 
L 204.750561 106.072067 
L 209.048433 106.085434 
L 213.355724 105.873767 
L 230.913924 104.425388 
L 235.362038 104.552632 
L 239.781322 105.166945 
L 244.124338 106.383206 
L 248.335541 108.267681 
L 252.356159 110.826421 
L 256.129609 114.004305 
L 259.606548 117.694658 
L 262.748646 121.756988 
L 265.530596 126.037479 
L 267.94038 130.387791 
L 269.978071 134.678727 
L 271.653754 138.80773 
L 272.985048 142.701086 
L 273.99465 146.311872 
L 274.708205 149.615732 
L 275.152577 152.60584 
L 275.354579 155.287985 
L 275.340085 157.676343 
L 275.133483 159.790086 
L 274.757366 161.650896 
L 274.232413 163.28121 
L 273.57738 164.703081 
L 272.809171 165.937461 
L 271.942958 167.003821 
L 270.992314 167.919989 
L 269.969361 168.70211 
L 268.884911 169.364729 
L 266.568994 170.38229 
L 264.109644 171.061269 
L 261.558385 171.47251 
L 258.955905 171.672758 
L 255.024144 171.674912 
L 251.12721 171.421891 
L 246.075345 170.833909 
L 240.091857 169.88698 
L 231.412002 168.250406 
L 214.168918 164.939375 
L 207.966942 164.001965 
L 203.559062 163.529684 
L 199.952219 163.331226 
L 196.982724 163.361369 
L 194.565173 163.577517 
L 192.681217 163.909486 
L 190.686596 164.45467 
L 188.517109 165.286415 
L 186.091944 166.448975 
L 181.277927 168.878993 
L 177.887613 170.26908 
L 175.442243 171.053698 
L 172.874009 171.700681 
L 170.208082 172.19469 
L 166.082225 172.665639 
L 161.874102 172.840022 
L 157.656568 172.750009 
L 152.118786 172.337402 
L 146.761029 171.717651 
L 140.401833 170.752796 
L 134.494857 169.604915 
L 129.11499 168.29509 
L 124.319799 166.885403 
L 119.369504 165.181612 
L 114.080985 163.096859 
L 103.904589 158.953507 
L 101.047868 158.088679 
L 95.918178 156.653239 
L 95.658806 156.360629 
L 95.66093 156.35784 
L 95.743485 156.359126 
L 95.3455 156.533484 
L 92.609754 156.75872 
L 89.959011 156.701669 
L 86.394252 156.629426 
L 81.602545 156.41076 
L 81.529498 156.38321 
L 81.805749 156.337041 
L 84.223448 156.257371 
L 93.861934 156.196154 
L 103.995517 156.217352 
L 104.00977 165.601948 
L 102.418495 172.026954 
L 101.333548 167.680586 
L 100.485857 165.516425 
L 99.771157 164.235441 
L 98.575931 162.730871 
L 97.126847 161.47529 
L 95.56929 160.488141 
L 93.714015 159.5896 
L 91.377913 158.728665 
L 88.855841 158.048794 
L 86.132297 157.55443 
L 82.895336 157.20857 
L 78.134383 156.94789 
L 69.987443 156.749575 
L 50.775948 156.562189 
L 13.589751 156.384 
L 20.884617 156.383307 
" style="fill:none;stroke:#ff0000;stroke-linecap:square;stroke-width:1.5;"/>
   </g>
   <g id="patch_3">
    <path d="M 54 189 
L 54 25.92 
" style="fill:none;stroke:#000000;stroke-linecap:square;stroke-linejoin:miter;stroke-width:0.8;"/>
   </g>
   <g id="patch_4">
    <path d="M 388.8 189 
L 388.8 25.92 
" style="fill:none;stroke:#000000;stroke-linecap:square;stroke-linejoin:miter;stroke-width:0.8;"/>
   </g>
   <g id="patch_5">
    <path d="M 54 189 
L 388.8 189 
" style="fill:none;stroke:#000000;stroke-linecap:square;stroke-linejoin:miter;stroke-width:0.8;"/>
   </g>
   <g id="patch_6">
    <path d="M 54 25.92 
L 388.8 25.92 
" style="fill:none;stroke:#000000;stroke-linecap:square;stroke-linejoin:miter;stroke-width:0.8;"/>
   </g>
   <g id="text_16">
    <!-- Phase Plane -->
    <g transform="translate(185.1225 19.92)scale(0.12 -0.12)">
     <defs>
      <path d="M 19.671875 64.796875 
L 19.671875 37.40625 
L 32.078125 37.40625 
Q 38.96875 37.40625 42.71875 40.96875 
Q 46.484375 44.53125 46.484375 51.125 
Q 46.484375 57.671875 42.71875 61.234375 
Q 38.96875 64.796875 32.078125 64.796875 
z
M 9.8125 72.90625 
L 32.078125 72.90625 
Q 44.34375 72.90625 50.609375 67.359375 
Q 56.890625 61.8125 56.890625 51.125 
Q 56.890625 40.328125 50.609375 34.8125 
Q 44.34375 29.296875 32.078125 29.296875 
L 19.671875 29.296875 
L 19.671875 0 
L 9.8125 0 
z
" id="DejaVuSans-80"/>
      <path d="M 54.890625 33.015625 
L 54.890625 0 
L 45.90625 0 
L 45.90625 32.71875 
Q 45.90625 40.484375 42.875 44.328125 
Q 39.84375 48.1875 33.796875 48.1875 
Q 26.515625 48.1875 22.3125 43.546875 
Q 18.109375 38.921875 18.109375 30.90625 
L 18.109375 0 
L 9.078125 0 
L 9.078125 75.984375 
L 18.109375 75.984375 
L 18.109375 46.1875 
Q 21.34375 51.125 25.703125 53.5625 
Q 30.078125 56 35.796875 56 
Q 45.21875 56 50.046875 50.171875 
Q 54.890625 44.34375 54.890625 33.015625 
z
" id="DejaVuSans-104"/>
      <path d="M 34.28125 27.484375 
Q 23.390625 27.484375 19.1875 25 
Q 14.984375 22.515625 14.984375 16.5 
Q 14.984375 11.71875 18.140625 8.90625 
Q 21.296875 6.109375 26.703125 6.109375 
Q 34.1875 6.109375 38.703125 11.40625 
Q 43.21875 16.703125 43.21875 25.484375 
L 43.21875 27.484375 
z
M 52.203125 31.203125 
L 52.203125 0 
L 43.21875 0 
L 43.21875 8.296875 
Q 40.140625 3.328125 35.546875 0.953125 
Q 30.953125 -1.421875 24.3125 -1.421875 
Q 15.921875 -1.421875 10.953125 3.296875 
Q 6 8.015625 6 15.921875 
Q 6 25.140625 12.171875 29.828125 
Q 18.359375 34.515625 30.609375 34.515625 
L 43.21875 34.515625 
L 43.21875 35.40625 
Q 43.21875 41.609375 39.140625 45 
Q 35.0625 48.390625 27.6875 48.390625 
Q 23 48.390625 18.546875 47.265625 
Q 14.109375 46.140625 10.015625 43.890625 
L 10.015625 52.203125 
Q 14.9375 54.109375 19.578125 55.046875 
Q 24.21875 56 28.609375 56 
Q 40.484375 56 46.34375 49.84375 
Q 52.203125 43.703125 52.203125 31.203125 
z
" id="DejaVuSans-97"/>
      <path d="M 44.28125 53.078125 
L 44.28125 44.578125 
Q 40.484375 46.53125 36.375 47.5 
Q 32.28125 48.484375 27.875 48.484375 
Q 21.1875 48.484375 17.84375 46.4375 
Q 14.5 44.390625 14.5 40.28125 
Q 14.5 37.15625 16.890625 35.375 
Q 19.28125 33.59375 26.515625 31.984375 
L 29.59375 31.296875 
Q 39.15625 29.25 43.1875 25.515625 
Q 47.21875 21.78125 47.21875 15.09375 
Q 47.21875 7.46875 41.1875 3.015625 
Q 35.15625 -1.421875 24.609375 -1.421875 
Q 20.21875 -1.421875 15.453125 -0.5625 
Q 10.6875 0.296875 5.421875 2 
L 5.421875 11.28125 
Q 10.40625 8.6875 15.234375 7.390625 
Q 20.0625 6.109375 24.8125 6.109375 
Q 31.15625 6.109375 34.5625 8.28125 
Q 37.984375 10.453125 37.984375 14.40625 
Q 37.984375 18.0625 35.515625 20.015625 
Q 33.0625 21.96875 24.703125 23.78125 
L 21.578125 24.515625 
Q 13.234375 26.265625 9.515625 29.90625 
Q 5.8125 33.546875 5.8125 39.890625 
Q 5.8125 47.609375 11.28125 51.796875 
Q 16.75 56 26.8125 56 
Q 31.78125 56 36.171875 55.265625 
Q 40.578125 54.546875 44.28125 53.078125 
z
" id="DejaVuSans-115"/>
      <path d="M 56.203125 29.59375 
L 56.203125 25.203125 
L 14.890625 25.203125 
Q 15.484375 15.921875 20.484375 11.0625 
Q 25.484375 6.203125 34.421875 6.203125 
Q 39.59375 6.203125 44.453125 7.46875 
Q 49.3125 8.734375 54.109375 11.28125 
L 54.109375 2.78125 
Q 49.265625 0.734375 44.1875 -0.34375 
Q 39.109375 -1.421875 33.890625 -1.421875 
Q 20.796875 -1.421875 13.15625 6.1875 
Q 5.515625 13.8125 5.515625 26.8125 
Q 5.515625 40.234375 12.765625 48.109375 
Q 20.015625 56 32.328125 56 
Q 43.359375 56 49.78125 48.890625 
Q 56.203125 41.796875 56.203125 29.59375 
z
M 47.21875 32.234375 
Q 47.125 39.59375 43.09375 43.984375 
Q 39.0625 48.390625 32.421875 48.390625 
Q 24.90625 48.390625 20.390625 44.140625 
Q 15.875 39.890625 15.1875 32.171875 
z
" id="DejaVuSans-101"/>
      <path id="DejaVuSans-32"/>
      <path d="M 9.421875 75.984375 
L 18.40625 75.984375 
L 18.40625 0 
L 9.421875 0 
z
" id="DejaVuSans-108"/>
      <path d="M 54.890625 33.015625 
L 54.890625 0 
L 45.90625 0 
L 45.90625 32.71875 
Q 45.90625 40.484375 42.875 44.328125 
Q 39.84375 48.1875 33.796875 48.1875 
Q 26.515625 48.1875 22.3125 43.546875 
Q 18.109375 38.921875 18.109375 30.90625 
L 18.109375 0 
L 9.078125 0 
L 9.078125 54.6875 
L 18.109375 54.6875 
L 18.109375 46.1875 
Q 21.34375 51.125 25.703125 53.5625 
Q 30.078125 56 35.796875 56 
Q 45.21875 56 50.046875 50.171875 
Q 54.890625 44.34375 54.890625 33.015625 
z
" id="DejaVuSans-110"/>
     </defs>
     <use xlink:href="#DejaVuSans-80"/>
     <use x="60.302734" xlink:href="#DejaVuSans-104"/>
     <use x="123.681641" xlink:href="#DejaVuSans-97"/>
     <use x="184.960938" xlink:href="#DejaVuSans-115"/>
     <use x="237.060547" xlink:href="#DejaVuSans-101"/>
     <use x="298.583984" xlink:href="#DejaVuSans-32"/>
     <use x="330.371094" xlink:href="#DejaVuSans-80"/>
     <use x="390.673828" xlink:href="#DejaVuSans-108"/>
     <use x="418.457031" xlink:href="#DejaVuSans-97"/>
     <use x="479.736328" xlink:href="#DejaVuSans-110"/>
     <use x="543.115234" xlink:href="#DejaVuSans-101"/>
    </g>
   </g>
  </g>
 </g>
 <defs>
  <clipPath id="p3f2caab034">
   <rect height="163.08" width="334.8" x="54" y="25.92"/>
  </clipPath>
 </defs>
</svg>
